<svg width="500" height="500" viewBox="0 0 500 500" fill="none" xmlns="http://www.w3.org/2000/svg">
  <path fill-rule="evenodd" clip-rule="evenodd" d="M229.932 0.756412C190.81 3.76274 149.926 17.4782 116.512 38.8074C98.7994 50.1134 87.119 59.5699 71.9447 74.8886C40.9272 106.202 19.1573 144.283 7.97193 186.791C-7.2704 244.72 -0.471516 308.223 26.7913 362.568C45.9931 400.843 76.4453 434.946 112.97 459.073C138.555 475.974 169.091 488.673 198.8 494.768C259.65 507.251 321.554 497.257 375.222 466.288C394.823 454.977 409.197 443.876 426.294 426.847C449.803 403.431 466.231 379.547 479.431 349.592C503.634 294.67 506.6 231.012 487.679 172.589C478.647 144.703 463.388 116.535 444.704 93.2568C435.614 81.9319 417.27 63.7073 405.83 54.6346C355.659 14.8497 293.661 -4.14106 229.932 0.756412ZM274.327 11.6764C305.496 15.1511 331.039 22.5729 357.409 35.8154C404.042 59.2344 441.769 97.1796 464.641 143.668C480.971 176.858 488.25 207.179 489.449 247.011C490.6 285.224 481.238 325.007 462.749 360.476C426.323 430.353 359.168 477.135 279.995 487.786C266.208 489.641 233.3 489.64 219.533 487.783C164.393 480.349 116.166 456.086 77.7626 416.46C43.5104 381.117 21.1722 336.588 13.6032 288.566C11.0963 272.66 10.3534 260.589 10.7751 242.62C11.2285 223.325 12.7922 211.077 17.0275 193.635C21.2523 176.24 26.588 161.367 34.3399 145.381C55.3284 102.095 90.5139 64.7235 132.264 41.3717C163.536 23.8808 191.709 15.2501 231.248 11.047C238.655 10.2597 265.083 10.6458 274.327 11.6764ZM141.583 84.0459C149.282 88.9728 151.974 92.3962 153.821 99.6004C154.807 103.451 154.926 118.405 154.74 215.372L154.525 326.721L152.835 332.766C147.938 350.281 137.769 362.21 122.892 367.894C115.1 370.87 108.219 371.964 100.585 371.439C91.9189 370.843 86.398 369.328 78.1299 365.273C72.5909 362.558 70.2767 360.868 66.2379 356.588C62.2194 352.329 57.4211 345.183 57.4211 343.455C57.4211 343.282 59.5682 343.312 62.193 343.523C65.7134 343.805 67.5862 343.585 69.3335 342.681C75.4424 339.523 77.8601 331.778 74.6669 325.594C72.2115 320.839 68.8566 318.788 63.5307 318.788C58.1323 318.788 54.494 321.086 52.1163 325.995C49.7969 330.786 50.4431 334.589 55.2588 344.477C58.5041 351.139 60.0459 353.321 64.885 358.099C77.6673 370.719 92.4154 376.104 111.812 375.233C125.424 374.621 135.919 371.365 146.98 364.323C156.893 358.012 164.367 349.497 169.293 338.906C174.834 326.99 174.565 333.422 174.565 212.711C174.565 117.377 174.704 103.995 175.738 100.027C177.754 92.2882 180.349 88.8769 187.897 84.0459C189 83.3387 184.027 83.146 164.74 83.146C145.454 83.146 140.48 83.3387 141.583 84.0459ZM204.866 85.6907C210.921 88.8436 215.168 94.8759 216.844 102.701C217.509 105.808 217.674 134.022 217.5 214.522L217.266 322.188L215.126 326.817C212.763 331.929 209.031 335.937 204.418 338.317L201.395 339.877L229.358 339.91L257.322 339.942L254.032 338.315C247.15 334.909 242.664 328.14 241.09 318.788C240.562 315.647 240.341 303.256 240.479 284.411L240.695 254.944L260.723 255.033C292.816 255.175 304.099 257.956 317.951 269.134C323.823 273.873 329.634 280.77 341.959 297.633C365.077 329.262 373.752 337.472 388.564 341.736C394.011 343.304 407.494 343.353 413.962 341.828C431.798 337.625 445.693 321.415 448.773 301.222C449.138 298.832 449.322 296.877 449.183 296.877C449.044 296.877 447.858 299.002 446.549 301.599C437.984 318.578 424.471 326.452 408.624 323.702C395.404 321.407 381.606 311.558 366.771 293.827C357.36 282.579 351.692 277.021 342.904 270.424C336.103 265.318 324.031 259.133 315.894 256.585L310.225 254.811L327.986 254.372C348.42 253.867 357.462 252.632 368.346 248.861C377.391 245.727 383.972 242.225 391.311 236.641C418.857 215.685 430.275 175.429 418.619 140.364C408.414 109.667 384.127 89.5108 351.806 84.9163C345.674 84.0444 330.657 83.8442 272.815 83.8615L201.395 83.8827L204.866 85.6907ZM328.742 88.3314C358.484 91.2402 381.943 109.444 392.673 137.944C399.653 156.482 399.653 181.142 392.673 199.68C383.016 225.329 364.571 241.676 337.811 248.304C333.639 249.337 325.92 249.566 286.608 249.819L240.317 250.118V177.68C240.317 98.2472 240.169 100.972 244.829 94.5412C247.013 91.5266 249.967 89.4972 253.916 88.2959C256.644 87.467 320.206 87.4965 328.742 88.3314Z" fill="#2D2D2D"/>
  </svg>
  